<?xml version="1.0" encoding="UTF-8" standalone="no"?>
<!-- Generator: Adobe Illustrator 15.0.0, SVG Export Plug-In . SVG Version: 6.00 Build 0)  -->

<svg
   xmlns:dc="http://purl.org/dc/elements/1.1/"
   xmlns:cc="http://creativecommons.org/ns#"
   xmlns:rdf="http://www.w3.org/1999/02/22-rdf-syntax-ns#"
   xmlns:svg="http://www.w3.org/2000/svg"
   xmlns="http://www.w3.org/2000/svg"
   xmlns:sodipodi="http://sodipodi.sourceforge.net/DTD/sodipodi-0.dtd"
   xmlns:inkscape="http://www.inkscape.org/namespaces/inkscape"
   version="1.1"
   id="Layer_1"
   x="0px"
   y="0px"
   width="608.46539"
   height="178.28708"
   viewBox="0 0 608.46539 178.28708"
   enable-background="new 0 0 512 512"
   xml:space="preserve"
   inkscape:version="0.48.5 r10040"
   sodipodi:docname="link.svg"><metadata
   id="metadata15"><rdf:RDF><cc:Work
       rdf:about=""><dc:format>image/svg+xml</dc:format><dc:type
         rdf:resource="http://purl.org/dc/dcmitype/StillImage" /></cc:Work></rdf:RDF></metadata><defs
   id="defs13" /><sodipodi:namedview
   pagecolor="#ffffff"
   bordercolor="#666666"
   borderopacity="1"
   objecttolerance="10"
   gridtolerance="10"
   guidetolerance="10"
   inkscape:pageopacity="0"
   inkscape:pageshadow="2"
   inkscape:window-width="640"
   inkscape:window-height="480"
   id="namedview11"
   showgrid="false"
   fit-margin-top="0"
   fit-margin-left="0"
   fit-margin-right="0"
   fit-margin-bottom="0"
   inkscape:zoom="0.4609375"
   inkscape:cx="304.23659"
   inkscape:cy="89.14082"
   inkscape:window-x="0"
   inkscape:window-y="0"
   inkscape:window-maximized="0"
   inkscape:current-layer="Layer_1" />
<g
   id="g3"
   transform="matrix(0.70710678,0.70710678,-0.70710678,0.70710678,304.23623,-272.89231)">
	<path
   d="m 266.788,293.64 -30.261,30.285 0.996,0.996 c 4.14,4.155 4.14,10.933 0,15.085 L 111.46,466.066 c -4.164,4.164 -10.934,4.164 -15.098,0 L 45.937,415.657 c -4.165,-4.181 -4.165,-10.949 0,-15.109 L 171.995,274.485 c 4.16,-4.156 10.931,-4.156 15.075,0 l 1,0.995 30.281,-30.262 -0.996,-1.003 c -20.884,-20.879 -54.747,-20.879 -75.642,0 L 15.662,370.275 c -20.883,20.894 -20.883,54.761 0,75.635 l 50.418,50.425 c 20.887,20.887 54.742,20.887 75.633,0 l 126.074,-126.06 c 20.883,-20.879 20.883,-54.758 0,-75.641 l -0.999,-0.994 z"
   id="path5"
   inkscape:connector-curvature="0" />
	<path
   d="M 496.336,66.105 445.922,15.677 c -20.903,-20.904 -54.759,-20.904 -75.648,0 L 244.21,141.725 c -20.879,20.879 -20.879,54.758 0,75.637 l 1,1 30.277,-30.271 -1.009,-0.996 c -4.159,-4.16 -4.159,-10.933 0,-15.094 L 400.546,45.943 c 4.175,-4.163 10.925,-4.163 15.093,0 l 50.427,50.43 c 4.164,4.146 4.164,10.917 0,15.082 L 340.003,237.516 c -4.159,4.156 -10.93,4.156 -15.086,0 l -1.004,-1 -30.262,30.281 0.995,0.996 c 20.867,20.886 54.738,20.886 75.625,0 L 496.335,141.725 c 20.886,-20.894 20.886,-54.746 0.001,-75.62 z"
   id="path7"
   inkscape:connector-curvature="0" />
	<path
   d="m 154.936,351.006 6.048,6.066 c 6.668,6.646 18.805,5.427 26.961,-2.75 L 354.32,187.958 c 8.159,-8.164 9.395,-20.3 2.745,-26.964 l -6.048,-6.051 c -6.668,-6.668 -18.793,-5.43 -26.965,2.746 L 157.667,324.058 c -8.144,8.171 -9.383,20.28 -2.731,26.948 z"
   id="path9"
   inkscape:connector-curvature="0" />
</g>
</svg>